<svg width="47" height="22" viewBox="0 0 47 22" fill="none" xmlns="http://www.w3.org/2000/svg">
<path d="M21.3632 4.34604C21.1211 4.70637 20.8991 5.02667 20.6772 5.36698C20.5763 5.26688 20.4956 5.16679 20.4149 5.08672C19.2043 3.78553 17.8322 2.72456 16.1777 2.02392C15.068 1.5635 13.9179 1.3433 12.7274 1.28325C11.9809 1.24321 11.2545 1.24321 10.508 1.3433C8.8131 1.54348 7.25947 2.12402 5.80672 3.00482C4.75752 3.64541 3.82937 4.42612 3.08282 5.40702C1.83185 7.00848 1.20636 8.81013 1.12565 10.832C1.04495 12.8738 1.63008 14.6955 2.82052 16.337C4.39433 18.519 6.53309 19.8602 9.13593 20.5008C10.3062 20.8011 11.4966 20.9012 12.7073 20.7811C14.1196 20.6409 15.4312 20.1605 16.662 19.4398C17.9331 18.6791 19.0428 17.7183 20.0719 16.6573C21.4641 15.216 22.6545 13.6345 23.845 12.0331C24.9345 10.5717 26.0039 9.09038 27.0935 7.64906C27.7997 6.72822 28.5664 5.86743 29.3937 5.04668C29.434 5.00665 29.4744 4.94659 29.5551 4.86652C29.3936 4.88654 29.3129 4.96661 29.2322 5.02667C28.2839 5.74733 27.4365 6.54805 26.6698 7.44888C25.5802 8.73005 24.5108 10.0112 23.4414 11.3124C22.3115 12.6937 21.1816 14.0549 19.9105 15.3161C18.9016 16.297 17.8322 17.1978 16.6216 17.8984C14.9267 18.8793 13.1108 19.3798 11.1536 19.2196C7.4007 18.8993 4.25309 16.337 3.3653 13.034C2.69946 10.6318 3.20389 8.42977 4.69698 6.44796C6.10938 4.58626 8.00601 3.48526 10.3264 3.10491C12.1019 2.80464 13.8573 2.94476 15.532 3.6454C16.8839 4.20591 17.9936 5.10674 18.942 6.18773C19.1841 6.44797 19.3858 6.72822 19.6481 7.00848C19.4262 7.34879 19.2043 7.6891 18.9823 8.04943C18.9016 7.96935 18.8411 7.88928 18.7805 7.80921C18.2761 7.18864 17.7515 6.56808 17.1462 6.02758C15.5119 4.58627 13.5749 4.00573 11.4159 4.14586C10.3264 4.22593 9.29734 4.46615 8.32885 4.94659C6.59362 5.8274 5.30229 7.12859 4.67681 8.99029C3.91008 11.3524 4.37415 13.4744 5.98831 15.3561C7.05769 16.5972 8.44991 17.3579 10.0439 17.7183C11.88 18.1386 13.6758 17.9985 15.411 17.2178C15.7338 17.0777 16.0365 16.8575 16.3593 16.6973C16.5005 16.6173 16.5611 16.5172 16.6014 16.377C16.7225 15.9967 16.8637 15.6364 17.005 15.276C17.0857 15.0558 17.1866 14.8556 17.2471 14.6354C17.3883 14.2551 17.348 13.8948 17.1462 13.5344C17.0857 13.4143 17.0251 13.3142 16.9444 13.1341C17.5296 13.4344 17.8322 13.8748 18.0542 14.3952C18.1551 13.9748 18.2761 13.5545 18.377 13.1141C18.5788 12.3534 18.8612 11.6327 19.2446 10.9321C19.5271 10.4116 19.8903 9.95117 20.2938 9.49074C20.4552 9.31058 20.6166 9.1104 20.7781 8.91022C21.2623 8.30967 21.4036 7.62904 21.3228 6.86835C21.2825 6.50802 21.222 6.12767 21.2018 5.76734C21.4843 6.20774 21.7264 6.66817 21.9282 7.12859C22.1299 7.60903 22.2308 8.10948 22.1905 8.64997C22.2106 8.64997 22.251 8.64997 22.2712 8.66999C22.3317 8.58992 22.372 8.48983 22.4326 8.40976C23.1186 7.32877 23.7844 6.22776 24.6521 5.2869C25.3784 4.48617 26.125 3.68544 26.9522 2.96478C28.6269 1.48343 30.5841 0.542569 32.8036 0.18224C35.1643 -0.198108 37.5048 0.00207475 39.7445 0.922916C41.4797 1.64357 43.0535 2.64449 44.3045 4.04577C45.616 5.5071 46.5239 7.20866 46.8669 9.15043C47.0082 9.97118 47.0284 10.7719 46.9678 11.6127C46.9073 12.6136 46.7257 13.5745 46.3827 14.5153C45.9186 15.8165 45.2124 16.9776 44.2641 17.9985C42.3675 20.0404 40.0269 21.2815 37.2829 21.782C34.8011 22.2224 32.4 22.0022 30.0595 21.0613C29.4542 20.8211 28.8892 20.5208 28.3444 20.1605C27.8198 19.8002 27.2952 19.4398 26.811 19.0395C26.3873 18.6992 26.0241 18.2988 25.6205 17.8984C25.8425 17.5381 26.0644 17.2178 26.2864 16.8575C26.5487 17.1177 26.7908 17.378 27.0128 17.6182C27.1136 17.7183 27.1944 17.8184 27.2952 17.8984C28.8892 19.2797 30.6648 20.2806 32.7632 20.6209C36.0319 21.1414 39.0584 20.5609 41.7823 18.6191C42.8315 17.8784 43.6992 16.9776 44.365 15.8966C45.1721 14.6154 45.6361 13.2342 45.7572 11.7128C45.8379 10.6118 45.7976 9.53078 45.4546 8.46981C44.8291 6.46798 43.679 4.82648 41.9841 3.56533C40.3296 2.3242 38.4733 1.54348 36.4152 1.30327C34.8616 1.1231 33.308 1.22319 31.7745 1.60354C31.714 1.62356 31.6737 1.64357 31.6131 1.72365C31.714 1.72365 31.8351 1.72365 31.9359 1.72365C34.2765 1.72365 36.496 2.24413 38.5944 3.30509C39.8857 3.9657 41.0156 4.80647 41.9438 5.90747C43.0333 7.20866 43.679 8.69001 43.8 10.3916C44.0018 13.3743 42.771 15.6964 40.3901 17.418C38.5338 18.7592 36.4354 19.2397 34.1756 19.0795C33.086 18.9994 32.0368 18.7592 31.0482 18.2788C30.5236 18.0386 30.0393 17.7383 29.5752 17.398C28.8287 16.8375 28.1629 16.1969 27.5575 15.4962C27.497 15.4162 27.4365 15.3361 27.3558 15.236C27.5777 14.8957 27.7997 14.5554 28.0418 14.195C28.1427 14.3152 28.2234 14.4152 28.2839 14.4953C29.1313 15.5363 30.0797 16.4371 31.2903 17.0777C32.1175 17.5181 32.9852 17.7583 33.9133 17.8584C35.1037 17.9985 36.2942 17.9184 37.4443 17.5581C38.9374 17.0977 40.2085 16.2769 41.1972 15.0758C43.1342 12.6937 43.114 9.35062 41.2577 7.00848C40.148 5.6072 38.6953 4.76643 36.9802 4.32603C36.3951 4.1859 35.8099 4.08581 35.2248 4.06579C33.994 4.04577 32.965 4.50619 32.1175 5.387C31.7947 5.74732 31.4921 6.12767 31.1894 6.488C30.8464 6.90839 30.5236 7.34879 30.1604 7.74915C29.777 8.20957 29.3129 8.58992 28.7883 8.87018C28.748 8.89019 28.7076 8.93023 28.6673 8.95025C29.434 8.91021 30.2007 8.85016 30.9675 8.81012C30.9675 8.83014 30.9675 8.85016 30.9876 8.87018C30.8666 8.93023 30.7455 8.99029 30.6043 9.03033C29.3533 9.47073 28.405 10.2915 27.6988 11.3725C27.497 11.6727 27.3154 11.993 27.1338 12.2933C26.9522 12.5936 26.7908 12.8939 26.6294 13.1741C26.1653 13.9748 25.5197 14.6354 24.6924 15.0758C24.5915 15.1359 24.4906 15.196 24.3897 15.276C25.0152 15.216 25.6407 15.0759 26.2864 15.236C26.1048 15.3361 25.9232 15.4562 25.7214 15.5363C24.7328 15.8966 24.0064 16.5772 23.3405 17.3379C23.159 17.5381 22.9774 17.7383 22.8159 17.9585C22.1703 18.7192 21.343 19.1796 20.3543 19.3197C19.8499 19.3798 19.4262 19.58 19.0025 19.8602C17.4287 20.9412 15.6531 21.5818 13.7565 21.822C11.6782 22.0823 9.64035 21.9021 7.66301 21.2215C5.98831 20.6409 4.47504 19.7401 3.22406 18.479C1.63008 16.8775 0.520343 14.9958 0.116803 12.7337C-0.0446132 11.8729 -0.00426107 10.9921 0.036093 10.1313C0.096624 9.25053 0.278217 8.38974 0.580872 7.54897C1.0853 6.16771 1.83185 4.94659 2.8407 3.88562C4.73734 1.92383 7.03752 0.702715 9.72106 0.222276C11.9204 -0.17809 14.0995 -0.0379601 16.1979 0.702717C17.7717 1.26323 19.1437 2.14403 20.3543 3.28507C20.6772 3.66542 21 4.00573 21.3632 4.34604Z" fill="#3A896A"/>
</svg>
